<svg xml:space="preserve" viewBox="371.5072 139.0464 282.624 280.704" width="282.624" y="0px" x="0px" xmlns:xlink="http://www.w3.org/1999/xlink" xmlns="http://www.w3.org/2000/svg" id="Layer_1" version="1.1" style="max-height: 500px" height="280.704">
<path d="M572.000000,144.691406 &#10;&#9;C582.439270,145.163055 592.355652,144.071167 602.320007,146.432388 &#10;&#9;C631.993958,153.464127 653.988281,178.554214 657.541443,208.927841 &#10;&#9;C661.928467,246.430161 638.737488,279.268524 603.903320,288.509399 &#10;&#9;C599.770569,289.605804 595.520081,290.258575 589.918884,291.404480 &#10;&#9;C612.727966,332.933899 635.149292,373.757263 657.411560,414.291016 &#10;&#9;C655.288269,416.780365 653.332214,416.237915 651.594971,416.245514 &#10;&#9;C637.764648,416.305847 623.933105,416.217194 610.104004,416.364105 &#10;&#9;C606.820862,416.399017 605.067383,415.231506 603.582397,412.257477 &#10;&#9;C574.414551,353.840790 545.136475,295.479095 515.863464,237.114944 &#10;&#9;C515.135132,235.662750 514.762024,233.951080 513.157715,232.934387 &#10;&#9;C511.159943,233.635040 510.878906,235.645981 510.100128,237.187485 &#10;&#9;C504.166107,248.933365 498.199677,260.665344 492.488434,272.519745 &#10;&#9;C490.901703,275.813171 488.947205,277.225067 485.214081,277.159058 &#10;&#9;C473.719940,276.955688 462.219849,277.099915 450.722168,277.075775 &#10;&#9;C448.773071,277.071655 446.709076,277.375610 444.333893,275.148438 &#10;&#9;C466.934692,232.019012 489.601654,188.763336 512.249329,145.544495 &#10;&#9;C515.194702,146.198914 515.270752,148.531403 515.981567,150.230911 &#10;&#9;C529.859924,183.415192 543.745605,216.596909 557.420044,249.865356 &#10;&#9;C559.012756,253.740265 561.089600,255.241318 565.199280,255.090225 &#10;&#9;C572.188171,254.833252 579.197083,255.165161 586.191284,254.994553 &#10;&#9;C605.669800,254.519348 621.415344,239.177475 622.266785,218.608124 &#10;&#9;C623.049072,199.708817 609.946716,183.927078 592.083923,180.393097 &#10;&#9;C581.696777,178.338089 571.148499,179.668365 560.675293,179.423721 &#10;&#9;C554.179932,179.271988 547.678467,179.386963 541.179749,179.367584 &#10;&#9;C539.336792,179.362091 537.447021,179.446899 536.533691,177.294327 &#10;&#9;C532.133972,166.924835 527.470947,156.657288 523.515320,144.691528 &#10;&#9;C540.077271,144.691528 555.788635,144.691528 572.000000,144.691406 &#10;z" stroke="none" opacity="1.000000" fill="#000000"/>
<path d="M409.340973,263.999939 &#10;&#9;C409.340088,269.666260 409.631042,274.854034 409.253754,279.992767 &#10;&#9;C408.902252,284.780426 410.889160,285.882446 415.313568,285.864899 &#10;&#9;C451.477692,285.721497 487.643463,285.893738 523.806274,285.630615 &#10;&#9;C529.004272,285.592773 531.555908,287.361969 533.611755,291.900543 &#10;&#9;C537.513916,300.515167 542.001587,308.864624 546.167419,317.167572 &#10;&#9;C544.296753,319.431213 542.163635,318.875183 540.258301,318.876221 &#10;&#9;C485.428284,318.905762 430.598297,318.910858 375.768280,318.881104 &#10;&#9;C368.081635,318.876923 367.991974,318.686493 367.989899,311.024078 &#10;&#9;C367.975586,257.860474 367.958405,204.696869 367.941681,151.533264 &#10;&#9;C367.939545,144.710449 367.938324,144.700043 374.934845,144.691757 &#10;&#9;C384.434326,144.680511 393.939789,144.886093 403.430634,144.599487 &#10;&#9;C407.958130,144.462753 409.452087,145.829269 409.430939,150.506897 &#10;&#9;C409.260498,188.170624 409.338837,225.835480 409.340973,263.999939 &#10;z" stroke="none" opacity="1.000000" fill="#000000"/>
<path d="M413.830841,416.258728 &#10;&#9;C398.745850,416.258057 384.139191,416.258057 369.897705,416.258057 &#10;&#9;C368.489594,413.471313 369.879547,411.957031 370.713959,410.436554 &#10;&#9;C385.130737,384.166870 399.597015,357.924286 414.037903,331.667816 &#10;&#9;C415.195557,329.562866 416.351654,327.725891 419.233856,327.741974 &#10;&#9;C433.221985,327.820038 447.210785,327.783051 461.199219,327.822845 &#10;&#9;C461.805939,327.824585 462.411713,328.180420 462.934418,328.345001 &#10;&#9;C463.688660,330.749054 462.294342,332.397552 461.432281,334.126312 &#10;&#9;C448.433594,360.193207 435.312714,386.199829 422.463898,412.340210 &#10;&#9;C420.543793,416.246674 417.750946,416.471893 413.830841,416.258728 &#10;z" stroke="none" opacity="1.000000" fill="#000000"/>
<path d="M591.785400,194.203613 &#10;&#9;C594.561768,195.857254 597.010681,196.302917 599.538940,194.460602 &#10;&#9;C602.811279,192.076080 604.656128,194.711304 606.734558,196.583160 &#10;&#9;C608.874573,198.510513 609.328857,200.400223 607.749084,203.115097 &#10;&#9;C605.298645,207.326355 606.252747,210.030167 610.854492,211.498795 &#10;&#9;C614.281433,212.592514 615.063354,214.668518 615.077576,217.829758 &#10;&#9;C615.091370,220.893677 614.047668,222.669830 610.975769,223.740616 &#10;&#9;C606.226257,225.396133 605.411804,227.552277 607.986755,232.002151 &#10;&#9;C609.856995,235.234116 608.007935,236.923752 606.204651,238.890488 &#10;&#9;C604.292358,240.976105 602.483276,242.319031 599.333252,240.515289 &#10;&#9;C594.906738,237.980621 591.933960,239.220245 590.201843,244.207214 &#10;&#9;C589.093506,247.398178 587.035095,248.046921 584.105774,248.040955 &#10;&#9;C581.051086,248.034729 579.316711,247.020477 578.396118,243.800537 &#10;&#9;C577.045227,239.075790 574.164734,238.053284 569.720764,240.445847 &#10;&#9;C567.250366,241.775894 565.468506,241.701065 563.638672,239.500366 &#10;&#9;C561.855591,237.355972 559.482483,235.761536 561.257080,232.226685 &#10;&#9;C563.781982,227.197388 562.995911,225.363800 557.592468,223.333969 &#10;&#9;C554.400024,222.134735 553.987061,219.866760 553.961975,217.037323 &#10;&#9;C553.937073,214.232941 554.750671,212.428375 557.795471,211.542389 &#10;&#9;C562.819519,210.080505 564.001648,207.486404 561.464417,203.107269 &#10;&#9;C559.514465,199.741867 561.245605,197.952896 563.222656,195.765976 &#10;&#9;C565.400269,193.357224 567.443237,193.180023 570.186768,194.964630 &#10;&#9;C573.870361,197.360657 576.886963,195.592270 578.098267,192.055588 &#10;&#9;C579.247559,188.699982 580.550598,187.208771 584.342651,187.338547 &#10;&#9;C588.265686,187.472839 590.158813,189.017456 590.702393,192.713348 &#10;&#9;C590.768066,193.159775 591.218933,193.549545 591.785400,194.203613 &#10;M593.273438,210.321838 &#10;&#9;C589.631226,206.359634 585.203796,205.131653 580.193848,207.051102 &#10;&#9;C574.224365,209.338120 571.516479,216.639175 574.271790,222.398102 &#10;&#9;C576.997375,228.094757 583.906921,230.344086 589.490051,227.397263 &#10;&#9;C595.260803,224.351318 598.159546,216.731003 593.273438,210.321838 &#10;z" stroke="none" opacity="1.000000" fill="#000000"/>
<path d="M491.342773,407.101105 &#10;&#9;C492.300446,409.530426 493.739227,410.961456 496.039185,410.382507 &#10;&#9;C498.344452,409.802155 499.798706,408.053253 499.663391,405.603577 &#10;&#9;C499.413666,401.083038 502.003571,400.505737 505.676270,400.561584 &#10;&#9;C514.492188,400.695648 523.314087,400.459991 532.129028,400.623077 &#10;&#9;C536.276001,400.699799 538.472595,399.480621 537.866638,394.931976 &#10;&#9;C537.697266,393.660797 537.948425,392.252594 538.335754,391.009766 &#10;&#9;C538.773926,389.603577 540.017578,388.956055 541.489319,389.084961 &#10;&#9;C543.014343,389.218506 543.207520,390.432220 543.273438,391.643127 &#10;&#9;C543.318665,392.473938 543.383667,393.316467 543.299500,394.139404 &#10;&#9;C542.887634,398.168091 543.432983,401.031555 548.737000,400.211365 &#10;&#9;C551.997803,399.707092 553.409058,401.588867 553.381897,405.016876 &#10;&#9;C553.328613,411.739197 549.474365,416.240021 542.784424,416.291626 &#10;&#9;C527.294312,416.411102 511.801880,416.396149 496.311676,416.273499 &#10;&#9;C489.609161,416.220428 485.698059,411.981506 485.679840,405.076569 &#10;&#9;C485.638062,389.252441 485.500610,373.425201 485.768646,357.605469 &#10;&#9;C485.854218,352.557861 484.253510,350.834290 479.186127,351.015564 &#10;&#9;C476.272095,351.119812 471.685303,353.376343 470.818817,347.690491 &#10;&#9;C469.899231,341.656311 472.681854,336.305878 477.784088,334.834839 &#10;&#9;C480.141418,334.155182 482.714233,334.010132 485.191650,333.994843 &#10;&#9;C499.849365,333.904266 514.507812,333.889984 529.165894,333.916046 &#10;&#9;C539.663269,333.934723 543.273560,337.594238 543.299561,348.056183 &#10;&#9;C543.305664,350.515198 543.300415,352.974243 543.300415,355.533752 &#10;&#9;C539.562683,356.135712 537.961365,354.913239 537.777039,351.798492 &#10;&#9;C537.757385,351.466095 537.763245,351.132233 537.746521,350.799622 &#10;&#9;C537.185425,339.620544 536.268311,338.975922 525.072388,339.622742 &#10;&#9;C516.098450,340.141205 507.093872,340.199097 498.111359,339.586761 &#10;&#9;C491.244415,339.118591 491.014221,339.451721 491.065979,346.238525 &#10;&#9;C491.219696,366.390839 491.211670,386.544434 491.342773,407.101105 &#10;z" stroke="none" opacity="1.000000" fill="#000000"/>
<path d="M526.538208,358.073090 &#10;&#9;C533.343201,355.617706 539.386841,356.074921 544.513611,360.948090 &#10;&#9;C549.761292,365.936035 550.921143,372.011658 548.418213,378.739014 &#10;&#9;C547.663879,380.766418 547.980164,381.935608 549.807495,383.316620 &#10;&#9;C552.840698,385.608978 555.510193,388.381958 558.340149,390.944427 &#10;&#9;C560.497375,392.897766 561.164673,395.152710 559.149048,397.481689 &#10;&#9;C557.057800,399.898041 554.796448,399.378448 552.711548,397.277313 &#10;&#9;C551.424561,395.980286 549.964417,394.813934 548.877869,393.366791 &#10;&#9;C545.575134,388.967773 542.272583,386.753479 535.879333,388.059021 &#10;&#9;C526.977844,389.876862 521.109497,385.359283 518.305176,377.158264 &#10;&#9;C515.779236,369.771118 518.492310,363.253174 526.538208,358.073090 &#10;M532.769104,362.366425 &#10;&#9;C531.373169,362.862183 529.869568,363.168365 528.601196,363.888763 &#10;&#9;C524.538269,366.196350 522.532715,370.861298 523.699219,374.880524 &#10;&#9;C525.023804,379.444458 529.181335,382.766693 533.505615,382.716675 &#10;&#9;C538.096069,382.663574 542.159668,379.474670 543.369019,374.976196 &#10;&#9;C545.048157,368.730652 541.016113,363.550262 532.769104,362.366425 &#10;z" stroke="none" opacity="1.000000" fill="#000000"/>
<path d="M509.015442,348.679413 &#10;&#9;C515.810181,348.689453 522.107422,348.678894 528.404419,348.722961 &#10;&#9;C530.419373,348.737061 532.807495,348.745544 532.709229,351.544800 &#10;&#9;C532.627563,353.871918 530.521423,354.167633 528.609985,354.171326 &#10;&#9;C519.330078,354.189148 510.050140,354.198059 500.770325,354.169800 &#10;&#9;C498.727356,354.163574 496.334412,353.960114 496.200806,351.422516 &#10;&#9;C496.050568,348.569427 498.607117,348.790314 500.564087,348.734955 &#10;&#9;C503.213745,348.660004 505.866455,348.693176 509.015442,348.679413 &#10;z" stroke="none" opacity="1.000000" fill="#000000"/>
<path d="M496.502869,390.236938 &#10;&#9;C498.225159,388.444672 500.127350,388.719055 501.916199,388.744537 &#10;&#9;C509.867401,388.857971 517.847595,388.125763 525.759338,389.222168 &#10;&#9;C528.070435,389.542480 530.637512,389.887085 532.335144,391.834503 &#10;&#9;C531.872559,394.068054 530.284790,394.166534 528.823425,394.173279 &#10;&#9;C519.369507,394.216980 509.914917,394.238159 500.461365,394.163727 &#10;&#9;C498.230682,394.146179 496.002472,393.735504 496.502869,390.236938 &#10;z" stroke="none" opacity="1.000000" fill="#000000"/>
<path d="M511.868530,358.624939 &#10;&#9;C514.792358,358.827637 517.307861,358.173218 519.949402,359.217102 &#10;&#9;C520.138123,362.260406 518.544067,363.962280 515.748657,364.082520 &#10;&#9;C510.444275,364.310608 505.122894,364.236023 499.811005,364.145233 &#10;&#9;C497.913422,364.112762 495.947784,363.521637 496.151947,361.071991 &#10;&#9;C496.331726,358.914490 498.236664,358.737396 499.932892,358.706085 &#10;&#9;C503.751862,358.635590 507.572296,358.646423 511.868530,358.624939 &#10;z" stroke="none" opacity="1.000000" fill="#000000"/>
<path d="M509.808838,378.640991 &#10;&#9;C511.600739,378.680878 512.935181,378.629944 514.247742,378.775513 &#10;&#9;C516.133972,378.984680 517.374878,380.114380 517.349670,382.020935 &#10;&#9;C517.321533,384.148834 515.472046,384.061218 514.035217,384.084808 &#10;&#9;C509.395508,384.161041 504.753357,384.167908 500.113342,384.107666 &#10;&#9;C498.212189,384.082977 496.162476,383.663422 496.272827,381.245697 &#10;&#9;C496.384125,378.807587 498.538513,378.736420 500.392029,378.697540 &#10;&#9;C503.374329,378.634979 506.358337,378.653595 509.808838,378.640991 &#10;z" stroke="none" opacity="1.000000" fill="#000000"/>
<path d="M496.197815,371.035706 &#10;&#9;C501.869812,366.896515 507.986145,369.139099 513.894348,369.188568 &#10;&#9;C514.914612,369.197144 515.216431,370.537506 515.177856,371.587067 &#10;&#9;C515.138184,372.666229 514.659607,373.712708 513.591858,373.821289 &#10;&#9;C508.186096,374.371124 502.750366,374.915619 497.409546,373.427307 &#10;&#9;C496.842072,373.269165 496.547150,372.132965 496.197815,371.035706 &#10;z" stroke="none" opacity="1.000000" fill="#000000"/>
</svg>